PathFileType  4	(X/Y/Z) C:\Users\antoi\Documents\MyRepositories\mobilecap\ResultsAnalysis
DataRate	CameraRate	NumFrames	NumMarkers	Units	OrigDataRate	OrigDataStartFrame	OrigNumFrames
100.0	100.0	6	51	mm	100.0	1	263
Frame#	Time	r_knee			r_shank_antsup			r_ankle			r_calc			r_5meta			r_toe			L_knee			L_shank_antsup			L_ankle			L_calc			L_5meta			L_toe			r_sh2			r_sh3			r_sh4			L_sh2			L_sh3			r_thigh1			r_thigh2			r_thigh3			r_thigh4			r_thigh5			L_thigh1			L_thigh2			L_thigh3			L_thigh4			r.ASIS			r.PSIS			L.ASIS			L.PSIS			C7			R_Shoulder			L_Shoulder			R_Sternum			L_Sternum			R_humerus			R_elbow_med			R_elbow_lat			R_forearm			R_wrist_radius			R_wrist_ulna			L_humerus			L_elbow_med			L_elbow_lat			L_forearm			L_wrist_radius			L_wrist_ulna			R_HJC			L_HJC			R_HJC_reg			L_HJC_reg			
		X1	Y1	Z1	X2	Y2	Z2	X3	Y3	Z3	X4	Y4	Z4	X5	Y5	Z5	X6	Y6	Z6	X7	Y7	Z7	X8	Y8	Z8	X9	Y9	Z9	X10	Y10	Z10	X11	Y11	Z11	X12	Y12	Z12	X13	Y13	Z13	X14	Y14	Z14	X15	Y15	Z15	X16	Y16	Z16	X17	Y17	Z17	X18	Y18	Z18	X19	Y19	Z19	X20	Y20	Z20	X21	Y21	Z21	X22	Y22	Z22	X23	Y23	Z23	X24	Y24	Z24	X25	Y25	Z25	X26	Y26	Z26	X27	Y27	Z27	X28	Y28	Z28	X29	Y29	Z29	X30	Y30	Z30	X31	Y31	Z31	X32	Y32	Z32	X33	Y33	Z33	X34	Y34	Z34	X35	Y35	Z35	X36	Y36	Z36	X37	Y37	Z37	X38	Y38	Z38	X39	Y39	Z39	X40	Y40	Z40	X41	Y41	Z41	X42	Y42	Z42	X43	Y43	Z43	X44	Y44	Z44	X45	Y45	Z45	X46	Y46	Z46	X47	Y47	Z47	X48	Y48	Z48	X49	Y49	Z49	X50	Y50	Z50	X51	Y51	Z51	

1	0.00000000	-1250.48230	844.86536	-449.29167	-1229.46450	764.71965	-432.56081	-1304.20155	408.04718	-453.80287	-1360.41396	356.56698	-502.63644	-1165.60038	346.77591	-401.59449	-1126.98110	370.46746	-459.48357	-1217.19526	841.83831	-748.95012	-1198.22850	721.35883	-762.08277	-1290.60606	407.12616	-748.46115	-1359.39272	360.14132	-704.18986	-1115.85096	368.70757	-721.93479	-1141.93188	342.33586	-785.77446	-1239.81436	652.08394	-424.29161	-1303.07842	771.08595	-419.76923	-1321.58047	656.10834	-419.10384	-1283.51058	742.61901	-782.59835	-1298.59056	620.38990	-778.24679	-1201.12549	1167.31747	-417.29395	-1186.22129	1057.12343	-429.29394	-1235.90220	1022.33024	-404.79110	-1312.77359	1145.22507	-422.88019	-1288.34972	1031.27471	-419.00073	-1169.33533	1168.55929	-773.30566	-1149.40979	1032.61337	-767.17795	-1290.11765	1147.84349	-780.02935	-1257.59346	1012.09801	-781.74341	-1179.25315	1351.92448	-465.05326	-1364.00380	1416.21648	-555.81938	-1161.34827	1347.11644	-723.76120	-1353.93361	1414.04337	-662.86467	-1306.44997	1922.18004	-612.80396	-1277.02444	1882.33706	-439.18933	-1243.52264	1886.10655	-768.39635	-1168.82015	1837.38436	-567.47876	-1165.86346	1831.60327	-626.12573	-1342.84596	1623.97632	-346.38090	-1375.30282	1529.54423	-423.50093	-1376.70858	1538.22571	-337.28347	-1294.60981	1400.95346	-310.84719	-1237.22400	1299.65783	-315.15696	-1279.18286	1294.08463	-298.33865	-1278.00260	1631.10477	-858.17392	-1332.16151	1544.27081	-797.73558	-1310.32395	1544.96981	-863.06479	-1249.31529	1383.35855	-881.72875	-1207.01125	1293.03327	-873.72201	-1244.89280	1283.39715	-884.40177	-1274.57499	1285.29234	-477.86843	-1255.62461	1281.09858	-707.41737	-1262.29901	1286.20996	-508.45488	-1246.26899	1282.75073	-678.85268	
2	0.01000000	-1249.59194	844.73685	-449.33078	-1228.77946	764.65933	-432.39309	-1304.33104	407.96707	-453.91036	-1360.43544	356.58402	-502.67300	-1165.61963	346.86425	-401.60498	-1127.03324	370.54667	-459.57053	-1216.36852	841.87410	-749.25576	-1197.45575	721.10522	-762.27334	-1290.64229	407.15773	-748.52891	-1359.46813	360.21540	-704.32772	-1115.95329	368.93136	-721.94456	-1141.94026	342.49025	-785.74499	-1239.31358	651.78257	-424.46264	-1302.18493	771.19740	-419.83244	-1321.30641	656.03812	-419.48156	-1282.62347	742.47677	-782.48468	-1298.20765	620.35582	-778.11948	-1201.58717	1167.41839	-417.43777	-1185.86495	1057.43182	-429.41556	-1235.65094	1022.37133	-404.82724	-1312.92628	1145.05655	-422.59616	-1288.29419	1030.97901	-419.11612	-1169.77767	1168.49855	-773.10484	-1149.07806	1032.60025	-767.07901	-1290.41131	1147.09381	-780.29899	-1257.18655	1011.92436	-782.09228	-1180.04695	1351.67461	-465.30000	-1364.44381	1416.11680	-555.88940	-1161.88889	1346.95729	-723.78934	-1354.43578	1413.87238	-662.72559	-1304.34181	1921.95994	-612.49944	-1275.49632	1882.42570	-439.23330	-1241.49497	1886.03843	-768.51057	-1167.23955	1836.66434	-567.32597	-1164.27462	1830.96746	-626.18653	-1342.82842	1624.58152	-346.07700	-1375.76794	1530.82028	-422.91470	-1377.29151	1539.25400	-336.67462	-1296.22475	1401.34220	-310.69069	-1239.72752	1299.56186	-314.87653	-1281.48518	1294.15595	-298.23726	-1277.64326	1631.50547	-858.74575	-1332.60506	1544.92054	-798.56471	-1310.64519	1545.64534	-864.00427	-1250.18031	1383.90012	-882.84389	-1208.33493	1293.14684	-874.23796	-1246.23214	1283.86723	-885.33985	-1275.21956	1285.06810	-477.96845	-1256.24226	1280.97460	-707.51700	-1262.97211	1286.24478	-508.58557	-1247.02193	1282.66770	-678.85447	
3	0.02000000	-1248.73279	844.54513	-449.45686	-1228.06975	764.42325	-432.42293	-1304.38081	407.95759	-453.94505	-1360.47053	356.57785	-502.72005	-1165.66449	346.97994	-401.64081	-1127.05783	370.62742	-459.59925	-1215.49149	841.82301	-749.40550	-1196.72592	720.82156	-762.38933	-1290.68430	407.14338	-748.48839	-1359.71342	360.22745	-704.36040	-1116.04893	369.15786	-721.92386	-1141.94543	342.63669	-785.72061	-1239.10207	651.45224	-424.64403	-1301.33639	771.09206	-420.01233	-1320.87745	656.02858	-419.59194	-1281.83734	742.41390	-782.48875	-1297.75400	620.30662	-778.15448	-1201.94300	1167.26692	-417.25866	-1185.66354	1057.50211	-429.54675	-1235.50393	1022.29568	-404.94150	-1313.19336	1144.87422	-422.17989	-1288.18630	1030.66363	-419.19573	-1170.10723	1168.41827	-772.98607	-1148.73103	1032.60514	-767.05031	-1290.58427	1146.39597	-780.90948	-1256.66766	1011.75959	-782.73076	-1180.82262	1351.46158	-465.41178	-1365.02468	1416.02334	-556.06889	-1162.44771	1346.73439	-723.77590	-1355.03051	1413.70899	-662.85347	-1302.16354	1921.99337	-612.51910	-1273.82484	1882.43298	-439.20856	-1239.43251	1885.85250	-768.35612	-1165.64422	1835.94383	-567.18556	-1162.63088	1830.30668	-626.12614	-1342.88496	1625.16599	-345.88102	-1376.85688	1531.63609	-422.45819	-1377.92508	1540.23008	-336.22985	-1297.91687	1401.60465	-310.33504	-1242.37129	1299.30710	-314.56070	-1283.99876	1294.27132	-297.75943	-1277.30591	1631.82820	-859.33685	-1333.04524	1545.52956	-799.30530	-1311.01561	1546.27046	-864.70198	-1251.16135	1384.26083	-883.59593	-1209.92968	1293.28007	-874.90143	-1247.70187	1284.21373	-886.37029	-1275.98034	1284.90782	-478.07063	-1256.85566	1280.79018	-707.60646	-1263.68436	1286.20814	-508.62894	-1247.75542	1282.51956	-678.82484	
4	0.03000000	-1247.76578	844.44938	-449.44412	-1227.16703	764.11025	-432.49943	-1304.46747	407.94596	-453.99217	-1360.55177	356.52897	-502.80370	-1165.74574	347.11250	-401.68908	-1127.07033	370.73487	-459.62598	-1214.53221	841.69707	-749.45076	-1196.02090	720.55868	-762.40399	-1290.72497	407.12283	-748.42048	-1359.85133	360.24649	-704.41791	-1116.13690	369.35270	-721.89416	-1141.96765	342.78136	-785.74133	-1238.82669	651.22145	-424.73374	-1300.45579	770.95312	-420.11643	-1320.20971	656.08364	-419.46722	-1281.12249	742.36484	-782.49360	-1297.26306	620.23381	-778.17498	-1202.16378	1166.87351	-416.96042	-1185.59814	1057.47129	-429.64018	-1235.38187	1022.14125	-405.08485	-1313.47127	1144.63526	-421.66911	-1287.99488	1030.31083	-419.29664	-1170.29271	1168.32392	-772.94601	-1148.34149	1032.60589	-766.98599	-1290.64180	1145.77388	-781.34045	-1256.14325	1011.49300	-783.09603	-1181.59241	1351.26133	-465.39785	-1365.72062	1415.96378	-556.31223	-1163.03450	1346.43334	-723.71615	-1355.63805	1413.60699	-663.17033	-1299.84446	1922.16615	-612.71940	-1272.00154	1882.32566	-439.19101	-1237.29550	1885.58579	-768.15789	-1163.99652	1835.20459	-567.07252	-1160.92802	1829.60570	-625.97409	-1343.01048	1625.75329	-345.79064	-1378.13675	1532.19077	-422.13282	-1378.63911	1541.13080	-335.93355	-1299.79222	1401.73849	-309.86324	-1245.26502	1298.91559	-314.09148	-1286.90211	1294.33671	-297.01191	-1277.01877	1632.12793	-859.93035	-1333.53712	1546.12417	-800.12764	-1311.40608	1546.82480	-865.28870	-1252.33221	1384.38685	-884.15529	-1211.79579	1293.37010	-875.65600	-1249.40545	1284.44901	-887.51364	-1276.86402	1284.80728	-478.15939	-1257.49081	1280.56881	-707.67216	-1264.48863	1286.07152	-508.65550	-1248.43317	1282.31857	-678.81761	
5	0.04000000	-1246.64098	844.47969	-449.20567	-1226.03833	763.86471	-432.42296	-1304.64425	407.87900	-454.09380	-1360.67461	356.44866	-502.90935	-1165.83808	347.28374	-401.72477	-1127.10570	370.90198	-459.72214	-1213.47160	841.52029	-749.57313	-1195.25744	720.35058	-762.45915	-1290.75650	407.12236	-748.42622	-1359.75676	360.30590	-704.56612	-1116.21254	369.48030	-721.87354	-1142.01891	342.92502	-785.79307	-1238.09809	651.21623	-424.64005	-1299.41696	770.96029	-419.97737	-1319.42665	656.19460	-419.26304	-1280.32103	742.28074	-782.38661	-1296.73018	620.22165	-778.15078	-1202.29327	1166.56373	-416.91620	-1185.48791	1057.52068	-429.68913	-1235.11478	1022.02240	-405.15525	-1313.70691	1144.22248	-421.35082	-1287.72241	1029.95468	-419.42647	-1170.39337	1168.22732	-772.91085	-1147.90773	1032.57000	-766.83875	-1290.66715	1145.20767	-781.09423	-1255.72595	1011.03612	-782.76981	-1182.41277	1351.00994	-465.41573	-1366.41046	1415.91078	-556.56003	-1163.65649	1346.07254	-723.64593	-1356.21182	1413.54107	-663.50802	-1297.49433	1922.22777	-612.81906	-1270.08484	1882.12087	-439.21760	-1235.05608	1885.28476	-768.16994	-1162.24060	1834.42334	-566.94724	-1159.14505	1828.85714	-625.87345	-1343.16803	1626.34449	-345.69716	-1379.14887	1532.80357	-421.86791	-1379.41402	1541.97029	-335.69005	-1301.89398	1401.83690	-309.35500	-1248.48024	1298.46147	-313.47732	-1290.17530	1294.28177	-296.27867	-1276.77264	1632.44306	-860.51125	-1334.08831	1546.71835	-801.12354	-1311.78086	1547.35036	-865.99257	-1253.70646	1384.46292	-884.92839	-1213.85238	1293.31071	-876.49253	-1251.39976	1284.64517	-888.69788	-1277.81339	1284.68824	-478.26592	-1258.17628	1280.33172	-707.75411	-1265.35722	1285.88163	-508.74695	-1249.13644	1282.11259	-678.84571	
6	0.05000000	-1245.40134	844.44674	-448.94231	-1224.86316	763.62421	-432.27487	-1304.78036	407.82299	-454.15690	-1360.78999	356.37466	-502.99615	-1165.89804	347.50989	-401.75212	-1127.18465	371.11140	-459.83463	-1212.33379	841.25311	-749.70564	-1194.37216	720.10187	-762.61176	-1290.78531	407.15107	-748.51346	-1359.77549	360.29663	-704.62053	-1116.27441	369.56483	-721.85721	-1142.08046	343.05071	-785.80094	-1237.06605	651.27863	-424.47344	-1298.19624	771.04817	-419.68575	-1318.69630	656.33239	-419.05697	-1279.34293	742.19737	-782.28388	-1296.07937	620.36735	-778.34062	-1202.42309	1166.50965	-417.09485	-1185.32425	1057.58753	-429.72951	-1234.66521	1021.95003	-405.13741	-1313.98258	1143.77825	-421.31320	-1287.39829	1029.62952	-419.51208	-1170.46750	1168.13387	-772.87285	-1147.44648	1032.48403	-766.68049	-1290.68169	1144.65902	-780.62659	-1255.30644	1010.45487	-782.23402	-1183.31147	1350.69773	-465.52647	-1367.06053	1415.79046	-556.80864	-1164.32585	1345.66617	-723.62175	-1356.81050	1413.39028	-663.86796	-1295.22181	1922.11566	-612.80910	-1268.06991	1881.86317	-439.21733	-1232.69797	1884.89976	-768.20050	-1160.36376	1833.58151	-566.77898	-1157.21164	1828.06035	-625.90358	-1343.32050	1626.90219	-345.51309	-1380.16955	1533.42918	-421.60235	-1380.21004	1542.78856	-335.44528	-1304.18792	1401.91281	-308.79401	-1251.99784	1297.93439	-312.85625	-1293.65474	1294.19302	-295.59464	-1276.51000	1632.70307	-861.00752	-1334.62260	1547.30141	-802.12069	-1312.16093	1547.93098	-866.83171	-1255.28045	1384.64957	-885.99415	-1216.15485	1293.08441	-877.51420	-1253.68872	1284.81209	-889.95368	-1278.77816	1284.49611	-478.41908	-1258.90095	1280.03747	-707.88463	-1266.23262	1285.68535	-508.85603	-1249.95487	1281.87375	-678.87153	
